<?xml version="1.0" encoding="utf-8"?>
<!-- Generator: Adobe Illustrator 22.1.0, SVG Export Plug-In . SVG Version: 6.00 Build 0)  -->
<svg version="1.1" id="Layer_1" xmlns="http://www.w3.org/2000/svg" xmlns:xlink="http://www.w3.org/1999/xlink" x="0px" y="0px"
	 viewBox="0 0 380.3 503.2" style="enable-background:new 0 0 380.3 503.2;" xml:space="preserve">
<style type="text/css">
	.st0{fill:#FEBE14;}
	.st1{fill:#FFCC3E;}
</style>
<g>
	<g>
		<path class="st0" d="M380.3,0v13.9l0,184.9c0,0,0,0,0,0l0,22.8l0,120.5l0,3.1l0,13.1c0,0.4,0,0.7-0.1,1.1v0c0,0,0,0,0,0.1
			c-0.6,11.8-3.2,23.3-6.5,34.3c0,0,0,0.1,0,0.1l-2.3,6.1c0,0,0,0,0,0l-0.2,0.6c-4.1,10-9.5,19.2-16,27.5c-0.6,0.7-1.1,1.4-1.7,2.2
			c-32.9,40.4-81.4,67.6-136.2,72.5c-1.9,0.1-3.9,0.1-5.9,0.1c-0.9,0-1.8,0-2.7,0c6-0.8,12.6-3,18-5.3c0.4-0.2,0.8-0.3,1.1-0.5
			c12.1-5.5,22.2-14.5,29-25.7c0,0,0,0,0-0.1c0,0,0-0.1,0.1-0.1c2.6-4.3,4.7-9,6.3-13.9c0-0.1,0-0.1,0-0.1c0-0.1,0.1-0.2,0.1-0.2
			c0.7-2.1,1.2-4.2,1.6-6.3c0.1-0.2,0.1-0.4,0.1-0.6c0,0,0-0.1,0-0.1c0.3-1.7,0.5-3.4,0.6-5.1c0.2-3.4,0.2-13.7,0.2-13.7v-1
			l-0.1-188.5v-0.2l0-33.4v-0.6l0-90.5l0-109.4l0-7.4l6.3,0h26.7c0.1,13.4,11,24.2,24.5,24.2c13.4,0,24.3-10.8,24.4-24.2H380.3z"/>
		<path class="st1" d="M225.6,165.9c0,13.5,10.9,24.4,24.4,24.4c0.1,0,0.2,0,0.3,0v41.7c-9.8-5.8-20.7-9.8-32.4-11.5v0.1
			c-4.3-0.6-8.7-1-13.2-1c-1.3,0-4,0.1-4,0.1c-2.6,0.1-5.2,0.3-7.8,0.7c-23.3,3.1-43.8,15-57.9,32.4c-0.6,0.7-1.1,1.3-1.6,2
			c-1,1.4-2.1,2.8-3,4.2c-0.5,0.7-1,1.4-1.4,2.2c-0.5,0.7-0.9,1.5-1.4,2.2c-0.5,0.7-0.9,1.5-1.3,2.2c-0.4,0.8-0.9,1.6-1.3,2.4
			c-0.3,0.6-0.6,1.2-0.9,1.8c-0.3,0.6-0.6,1.2-0.9,1.8c-0.2,0.5-0.4,0.9-0.6,1.4c-0.2,0.4-0.3,0.7-0.5,1.1c-0.4,0.8-0.7,1.7-1.1,2.6
			c-0.2,0.6-0.5,1.2-0.7,1.8c-0.3,0.7-0.5,1.4-0.7,2.1c-0.2,0.7-0.5,1.4-0.7,2.1c-0.2,0.5-0.3,1.1-0.5,1.6v0c0,0.1-0.1,0.2-0.1,0.3
			c-0.2,0.5-0.3,1-0.4,1.6c-0.1,0.4-0.2,0.8-0.3,1.2c-0.1,0.2-0.1,0.3-0.1,0.5c-0.1,0.3-0.2,0.7-0.3,1c-0.2,0.6-0.3,1.2-0.4,1.8
			c-0.1,0.5-0.2,1-0.3,1.5c-0.1,0.5-0.2,0.9-0.3,1.4c0,0,0,0,0,0c-0.1,0.5-0.2,0.9-0.2,1.4c-0.1,0.6-0.2,1.2-0.3,1.8
			c-0.1,0.4-0.1,0.8-0.2,1.3c0,0,0,0.1,0,0.1c-0.1,0.5-0.1,1-0.2,1.5c-0.1,0.5-0.1,1-0.2,1.5c0,0.5-0.1,0.9-0.1,1.4
			c0,0.1,0,0.1,0,0.2c0,0.5-0.1,1-0.1,1.5c0,0.1,0,0.1,0,0.2c0,0.6-0.1,1.2-0.1,1.7c0,0.1,0,0.2,0,0.3c0,1.1-0.1,2.2-0.1,3.2
			c0,49.6,40.2,89.8,89.9,89.8c10.8,0,21.1-1.9,30.7-5.4c0,0,0,0,0,0c1.3-0.5,2.5-1,3.8-1.5c3.7-1.6,7.4-3.4,10.8-5.4v49.4
			c0,0.8,0.1,1.6,0.1,2.4c0,11.1-2.8,21.5-7.7,30.6c-0.4,0.8-0.8,1.5-1.3,2.2c-4.4,7.4-10.2,13.8-17.1,18.9c-0.7,0.5-1.4,1-2.1,1.5
			c-5.7,3.9-12,6.8-18.7,8.7c-4.6,1.3-9.4,2.1-14.4,2.3c-78-4.1-144.1-53-173.1-121.5c-0.5-1.1-0.9-2.2-1.4-3.3
			c-0.5-1.1-0.9-2.2-1.3-3.4c-0.6-1.5-1.1-3-1.7-4.6c-0.2-0.5-0.4-1.1-0.6-1.6c-0.3-0.7-0.5-1.4-0.7-2.2c-0.2-0.7-0.5-1.4-0.7-2.2
			c-0.2-0.7-0.5-1.5-0.7-2.2C3,343.9,0,324.4,0,304.3C0,194.2,89.2,105,199.2,105c17.7,0,34.8,2.3,51.1,6.6v29.8c-0.1,0-0.2,0-0.3,0
			C236.5,141.5,225.6,152.4,225.6,165.9z"/>
	</g>
</g>
</svg>
