<svg xmlns="http://www.w3.org/2000/svg" xmlns:xlink="http://www.w3.org/1999/xlink" viewBox="0 0 120 120"><defs><style>.cls-1{isolation:isolate;}.cls-2{fill:#fff;}.cls-11,.cls-3{fill:#cfd4db;}.cls-13,.cls-14,.cls-15,.cls-18,.cls-19,.cls-4,.cls-7,.cls-8{fill:none;}.cls-4,.cls-5,.cls-6{stroke:#fff;}.cls-13,.cls-14,.cls-15,.cls-16,.cls-17,.cls-19,.cls-4,.cls-5,.cls-6{stroke-miterlimit:10;}.cls-13,.cls-14,.cls-15,.cls-16,.cls-17,.cls-4,.cls-5,.cls-6{stroke-width:0.95px;}.cls-16,.cls-5{fill:#99c1ff;}.cls-17,.cls-23,.cls-6{fill:#e5e8ec;}.cls-7{stroke:#99c1ff;}.cls-7,.cls-8{stroke-linecap:round;stroke-linejoin:round;stroke-width:0;}.cls-13,.cls-16,.cls-8{stroke:#e5e8ec;}.cls-10,.cls-11,.cls-24,.cls-25,.cls-9{mix-blend-mode:multiply;}.cls-9{fill:url(#linear-gradient);}.cls-10{fill:url(#linear-gradient-2);}.cls-12{fill:url(#linear-gradient-3);}.cls-14{stroke:#ffab00;}.cls-15,.cls-17,.cls-19{stroke:#0065ff;}.cls-19{stroke-width:2.84px;}.cls-20{fill:#344563;}.cls-21{fill:#fdc150;}.cls-22{fill:#fafbfc;}.cls-24,.cls-26{fill:#c1c7d0;}</style><linearGradient id="linear-gradient" x1="32.09" y1="88.87" x2="32.09" y2="18.08" gradientUnits="userSpaceOnUse"><stop offset="0" stop-color="#e5e8ec" stop-opacity="0.1"/><stop offset="0.08" stop-color="#e1e4e9" stop-opacity="0.27"/><stop offset="0.18" stop-color="#dce0e5" stop-opacity="0.46"/><stop offset="0.29" stop-color="#d8dce2" stop-opacity="0.63"/><stop offset="0.4" stop-color="#d5d9df" stop-opacity="0.76"/><stop offset="0.53" stop-color="#d2d7dd" stop-opacity="0.87"/><stop offset="0.66" stop-color="#d0d5dc" stop-opacity="0.94"/><stop offset="0.8" stop-color="#cfd4db" stop-opacity="0.99"/><stop offset="1" stop-color="#cfd4db"/></linearGradient><linearGradient id="linear-gradient-2" x1="57.13" y1="88.87" x2="57.13" y2="18.08" xlink:href="#linear-gradient"/><linearGradient id="linear-gradient-3" x1="39.46" y1="81.06" x2="110.57" y2="9.95" gradientUnits="userSpaceOnUse"><stop offset="0" stop-color="#172b4d"/><stop offset="0.58" stop-color="#192d4e"/><stop offset="0.78" stop-color="#203354"/><stop offset="0.93" stop-color="#2b3d5c"/><stop offset="1" stop-color="#344563"/></linearGradient></defs><title>BB ES - Code Review</title><g class="cls-1"><g id="Layer_2" data-name="Layer 2"><g id="Layer_1-2" data-name="Layer 1"><rect class="cls-2" x="17.75" y="95.22" width="8.44" height="2.84"/><rect class="cls-2" x="17.75" y="86.3" width="8.44" height="2.84"/><rect class="cls-2" x="17.75" y="77.38" width="8.04" height="2.84"/><rect id="_Rectangle_" data-name="&lt;Rectangle&gt;" class="cls-3" x="11.51" y="39.1" width="71.43" height="70.79"/><path class="cls-4" d="M41.15,68.91"/><path class="cls-4" d="M24.68,68.91"/><line class="cls-4" x1="27.52" y1="63.3" x2="41.15" y2="63.3"/><line class="cls-4" x1="27.52" y1="57.69" x2="41.15" y2="57.69"/><line class="cls-4" x1="27.52" y1="52.08" x2="33.38" y2="52.08"/><line class="cls-5" x1="19" y1="52.08" x2="23.93" y2="52.08"/><line class="cls-5" x1="19" y1="57.69" x2="23.93" y2="57.69"/><line class="cls-5" x1="19" y1="63.3" x2="23.93" y2="63.3"/><line class="cls-5" x1="19" y1="68.91" x2="23.46" y2="68.91"/><line class="cls-5" x1="19" y1="74.52" x2="21.09" y2="74.52"/><line class="cls-5" x1="19" y1="80.13" x2="21.09" y2="80.13"/><line class="cls-5" x1="19" y1="85.74" x2="21.09" y2="85.74"/><line class="cls-5" x1="19" y1="91.35" x2="21.09" y2="91.35"/><line class="cls-5" x1="19" y1="96.96" x2="21.09" y2="96.96"/><line id="_Line_" data-name="&lt;Line&gt;" class="cls-4" x1="44.67" y1="80.13" x2="73.53" y2="80.13"/><path class="cls-4" d="M24.21,80.13h0Z"/><line class="cls-4" x1="51.75" y1="85.74" x2="76.3" y2="85.74"/><line class="cls-6" x1="33.38" y1="85.74" x2="48.56" y2="85.74"/><line class="cls-6" x1="33.38" y1="91.35" x2="66.76" y2="91.35"/><line class="cls-4" x1="42.54" y1="96.96" x2="56.34" y2="96.96"/><line class="cls-4" x1="34.86" y1="68.91" x2="50.69" y2="68.91"/><line class="cls-4" x1="34.86" y1="74.52" x2="50.69" y2="74.52"/><line class="cls-7" x1="19" y1="52.08" x2="23.93" y2="52.08"/><line class="cls-7" x1="23.93" y1="57.69" x2="19" y2="57.69"/><line class="cls-7" x1="23.93" y1="63.3" x2="19" y2="63.3"/><line class="cls-7" x1="23.46" y1="68.91" x2="19" y2="68.91"/><line class="cls-7" x1="21.09" y1="74.52" x2="19" y2="74.52"/><line class="cls-7" x1="19" y1="80.13" x2="21.09" y2="80.13"/><line class="cls-7" x1="21.09" y1="85.74" x2="19" y2="85.74"/><line class="cls-7" x1="21.09" y1="91.35" x2="19" y2="91.35"/><line class="cls-7" x1="21.09" y1="96.96" x2="19" y2="96.96"/><line class="cls-8" x1="37.13" y1="91.35" x2="66.76" y2="91.35"/><path class="cls-9" d="M31.33,88.87h1.52a12.34,12.34,0,0,0-1.52-3.74Z"/><path class="cls-10" d="M31.33,79.07a16.41,16.41,0,0,1,5.57,9.79h46V39.1H31.33Z"/><path class="cls-11" d="M31.33,79.07A16.36,16.36,0,0,0,11.51,78v5.26a12.44,12.44,0,1,1,0,16.64v5.26A16.41,16.41,0,0,0,37.14,91.59c0-.08,0-.16,0-.23a16.52,16.52,0,0,0-5.8-12.28Z"/><rect id="_Rectangle_2" data-name="&lt;Rectangle&gt;" class="cls-12" x="39.3" y="10.11" width="71.43" height="70.79"/><path class="cls-13" d="M69,39.92"/><path class="cls-13" d="M56.74,39.92"/><line class="cls-14" x1="56.74" y1="34.31" x2="68.95" y2="34.31"/><line class="cls-15" x1="56.74" y1="28.7" x2="68.95" y2="28.7"/><line class="cls-13" x1="56.74" y1="23.09" x2="61.17" y2="23.09"/><line class="cls-16" x1="46.8" y1="23.09" x2="52.68" y2="23.09"/><line class="cls-16" x1="46.8" y1="28.7" x2="52.68" y2="28.7"/><line class="cls-16" x1="46.8" y1="34.31" x2="52.68" y2="34.31"/><line class="cls-16" x1="46.8" y1="39.92" x2="52.68" y2="39.92"/><line class="cls-16" x1="46.8" y1="45.53" x2="52.68" y2="45.53"/><line class="cls-16" x1="46.8" y1="51.14" x2="52.68" y2="51.14"/><line class="cls-16" x1="46.8" y1="56.75" x2="52.68" y2="56.75"/><line class="cls-16" x1="46.8" y1="62.36" x2="52.68" y2="62.36"/><line class="cls-16" x1="46.8" y1="67.97" x2="52.68" y2="67.97"/><line id="_Line_2" data-name="&lt;Line&gt;" class="cls-14" x1="72.47" y1="51.14" x2="101.32" y2="51.14"/><path class="cls-13" d="M56.74,51.14h0Z"/><line class="cls-14" x1="79.55" y1="56.75" x2="104.1" y2="56.75"/><line class="cls-17" x1="61.17" y1="56.75" x2="76.35" y2="56.75"/><line class="cls-17" x1="61.17" y1="62.36" x2="94.56" y2="62.36"/><line class="cls-13" x1="70.34" y1="67.97" x2="84.13" y2="67.97"/><line class="cls-13" x1="62.66" y1="39.92" x2="78.48" y2="39.92"/><line class="cls-13" x1="62.66" y1="45.53" x2="78.48" y2="45.53"/><path class="cls-18" d="M98.18,39.49a12.44,12.44,0,1,0,12.44,12.44A12.45,12.45,0,0,0,98.18,39.49Z"/><path class="cls-11" d="M110.73,41.36a16.42,16.42,0,1,0,0,21.14Zm-12.55,23a12.44,12.44,0,1,1,12.44-12.44A12.45,12.45,0,0,1,98.18,64.37Z"/><line class="cls-19" x1="8.99" y1="99.53" x2="1.98" y2="106.54"/><circle id="_Ellipse_" data-name="&lt;Ellipse&gt;" class="cls-20" cx="100.57" cy="49.54" r="14.43"/><path class="cls-21" d="M86.86,54H104V51.18H86.24A14.33,14.33,0,0,0,86.86,54Z"/><path class="cls-22" d="M86.86,45.06H104V42.22H88.15A14.33,14.33,0,0,0,86.86,45.06Z"/><line class="cls-19" x1="111.01" y1="59.88" x2="118.02" y2="66.9"/><circle id="_Ellipse_2" data-name="&lt;Ellipse&gt;" class="cls-23" cx="19.34" cy="89.09" r="14.43"/><rect class="cls-2" x="17.75" y="95.22" width="8.44" height="2.84"/><rect class="cls-2" x="17.75" y="86.3" width="8.44" height="2.84"/><rect class="cls-2" x="17.75" y="77.38" width="8.04" height="2.84"/><path class="cls-24" d="M21.46,74.84A17.22,17.22,0,0,0,5,89.87a14.41,14.41,0,0,0,9.59,12.82A13,13,0,1,1,33.31,85.54,14.42,14.42,0,0,0,21.46,74.84Z"/><g class="cls-25"><path class="cls-26" d="M115,49.54c0-.49,0-1-.07-1.45A17.2,17.2,0,0,0,93.4,37a14.41,14.41,0,0,0-7.26,12.51A13,13,0,1,1,109,61.22,14.4,14.4,0,0,0,115,49.54Z"/></g><rect class="cls-18" width="120" height="120"/><circle id="_Ellipse_3" data-name="&lt;Ellipse&gt;" class="cls-19" cx="100.57" cy="49.54" r="14.43"/><circle id="_Ellipse_4" data-name="&lt;Ellipse&gt;" class="cls-19" cx="19.34" cy="89.09" r="14.43"/></g></g></g></svg>